<svg xmlns="http://www.w3.org/2000/svg" xmlns:xlink="http://www.w3.org/1999/xlink" width="500" zoomAndPan="magnify" viewBox="0 0 375 374.999991" height="500" preserveAspectRatio="xMidYMid meet" version="1.0"><defs><clipPath id="1e320bed09"><path d="M 35.476562 134.625 L 295.132812 134.625 L 295.132812 365.289062 L 35.476562 365.289062 Z M 35.476562 134.625 " clip-rule="nonzero"/></clipPath><clipPath id="68fb0a77e1"><path d="M 0.476562 0.625 L 260 0.625 L 260 231.289062 L 0.476562 231.289062 Z M 0.476562 0.625 " clip-rule="nonzero"/></clipPath><clipPath id="2847d70f28"><rect x="0" width="261" y="0" height="232"/></clipPath><clipPath id="1fa5e66ed8"><path d="M 106.0625 9.710938 L 339.523438 9.710938 L 339.523438 217.621094 L 106.0625 217.621094 Z M 106.0625 9.710938 " clip-rule="nonzero"/></clipPath><clipPath id="857fd7221c"><path d="M 0.0625 0.710938 L 233.523438 0.710938 L 233.523438 208.621094 L 0.0625 208.621094 Z M 0.0625 0.710938 " clip-rule="nonzero"/></clipPath><clipPath id="736a60b741"><rect x="0" width="234" y="0" height="209"/></clipPath><clipPath id="e1751305c9"><path d="M 165.980469 112.140625 L 275.480469 112.140625 L 275.480469 124.890625 L 165.980469 124.890625 Z M 165.980469 112.140625 " clip-rule="nonzero"/></clipPath><clipPath id="a1e83a58a5"><path d="M 0.980469 0.140625 L 110.480469 0.140625 L 110.480469 12.890625 L 0.980469 12.890625 Z M 0.980469 0.140625 " clip-rule="nonzero"/></clipPath><clipPath id="1fe5f76774"><rect x="0" width="111" y="0" height="13"/></clipPath><clipPath id="51d8b8a9c3"><path d="M 121.738281 252.652344 L 231.238281 252.652344 L 231.238281 265.402344 L 121.738281 265.402344 Z M 121.738281 252.652344 " clip-rule="nonzero"/></clipPath><clipPath id="5566686df9"><path d="M 0.738281 0.652344 L 110.238281 0.652344 L 110.238281 13.402344 L 0.738281 13.402344 Z M 0.738281 0.652344 " clip-rule="nonzero"/></clipPath><clipPath id="aab1515d8c"><rect x="0" width="111" y="0" height="14"/></clipPath><clipPath id="4aa2753a93"><path d="M 145.292969 182.398438 L 254.792969 182.398438 L 254.792969 195.148438 L 145.292969 195.148438 Z M 145.292969 182.398438 " clip-rule="nonzero"/></clipPath><clipPath id="2a2673914b"><path d="M 0.292969 0.398438 L 109.792969 0.398438 L 109.792969 13.148438 L 0.292969 13.148438 Z M 0.292969 0.398438 " clip-rule="nonzero"/></clipPath><clipPath id="0244a304b1"><rect x="0" width="110" y="0" height="14"/></clipPath><clipPath id="e5ff2133d8"><path d="M 93 58 L 187 58 L 187 325 L 93 325 Z M 93 58 " clip-rule="nonzero"/></clipPath><clipPath id="aa9c051f9b"><path d="M 92.667969 321.390625 L 173.785156 56.796875 L 188.128906 61.191406 L 107.007812 325.785156 Z M 92.667969 321.390625 " clip-rule="nonzero"/></clipPath><clipPath id="9c3a047e1a"><path d="M 97.6875 322.929688 L 101.933594 324.230469 C 104.703125 325.082031 107.640625 323.523438 108.488281 320.75 L 186.359375 66.765625 C 187.207031 63.992188 185.648438 61.054688 182.878906 60.207031 L 178.632812 58.902344 C 175.859375 58.054688 172.921875 59.613281 172.074219 62.382812 L 94.207031 316.371094 C 93.355469 319.140625 94.914062 322.078125 97.6875 322.929688 Z M 97.6875 322.929688 " clip-rule="nonzero"/></clipPath><clipPath id="49577f223b"><path d="M 92.667969 321.390625 L 173.566406 57.511719 L 187.90625 61.910156 L 107.007812 325.785156 Z M 92.667969 321.390625 " clip-rule="nonzero"/></clipPath><clipPath id="23f365cfe2"><path d="M 0.121094 0 L 94 0 L 94 267 L 0.121094 267 Z M 0.121094 0 " clip-rule="nonzero"/></clipPath><clipPath id="afd7299627"><path d="M -0.332031 263.390625 L 80.785156 -1.203125 L 95.128906 3.191406 L 14.007812 267.785156 Z M -0.332031 263.390625 " clip-rule="nonzero"/></clipPath><clipPath id="fbe31b514f"><path d="M 4.6875 264.929688 L 8.933594 266.230469 C 11.703125 267.082031 14.640625 265.523438 15.488281 262.75 L 93.359375 8.765625 C 94.207031 5.992188 92.648438 3.054688 89.878906 2.207031 L 85.632812 0.902344 C 82.859375 0.0546875 79.921875 1.613281 79.074219 4.382812 L 1.207031 258.371094 C 0.355469 261.140625 1.914062 264.078125 4.6875 264.929688 Z M 4.6875 264.929688 " clip-rule="nonzero"/></clipPath><clipPath id="ef8271a896"><path d="M -0.332031 263.390625 L 80.566406 -0.488281 L 94.90625 3.910156 L 14.007812 267.785156 Z M -0.332031 263.390625 " clip-rule="nonzero"/></clipPath><clipPath id="4adabf4a26"><path d="M 104.46875 -27.515625 L 13.675781 268.628906 L -21.460938 257.855469 L 69.332031 -38.289062 Z M 104.46875 -27.515625 " clip-rule="nonzero"/></clipPath><clipPath id="7b68b2c849"><rect x="0" width="94" y="0" height="267"/></clipPath><clipPath id="2d9d9c517e"><path d="M 201 62 L 294 62 L 294 329 L 201 329 Z M 201 62 " clip-rule="nonzero"/></clipPath><clipPath id="5fa16530f7"><path d="M 199.910156 325.679688 L 281.027344 61.085938 L 295.371094 65.480469 L 214.25 330.074219 Z M 199.910156 325.679688 " clip-rule="nonzero"/></clipPath><clipPath id="9954751834"><path d="M 204.929688 327.21875 L 209.175781 328.519531 C 211.945312 329.371094 214.882812 327.8125 215.730469 325.039062 L 293.597656 71.054688 C 294.449219 68.28125 292.890625 65.34375 290.117188 64.496094 L 285.871094 63.195312 C 283.101562 62.34375 280.164062 63.902344 279.316406 66.675781 L 201.449219 320.660156 C 200.597656 323.433594 202.15625 326.367188 204.929688 327.21875 Z M 204.929688 327.21875 " clip-rule="nonzero"/></clipPath><clipPath id="15f2d70618"><path d="M 199.910156 325.679688 L 280.808594 61.800781 L 295.148438 66.199219 L 214.25 330.074219 Z M 199.910156 325.679688 " clip-rule="nonzero"/></clipPath><clipPath id="394f44cf47"><path d="M 0 0.160156 L 93 0.160156 L 93 267 L 0 267 Z M 0 0.160156 " clip-rule="nonzero"/></clipPath><clipPath id="a8a29c3933"><path d="M -1.089844 263.679688 L 80.027344 -0.914062 L 94.371094 3.480469 L 13.25 268.074219 Z M -1.089844 263.679688 " clip-rule="nonzero"/></clipPath><clipPath id="41ae857798"><path d="M 3.929688 265.21875 L 8.175781 266.519531 C 10.945312 267.371094 13.882812 265.8125 14.730469 263.039062 L 92.597656 9.054688 C 93.449219 6.28125 91.890625 3.34375 89.117188 2.496094 L 84.871094 1.195312 C 82.101562 0.34375 79.164062 1.902344 78.316406 4.675781 L 0.449219 258.660156 C -0.402344 261.433594 1.15625 264.367188 3.929688 265.21875 Z M 3.929688 265.21875 " clip-rule="nonzero"/></clipPath><clipPath id="cfb546ad3e"><path d="M -1.089844 263.679688 L 79.808594 -0.199219 L 94.148438 4.199219 L 13.25 268.074219 Z M -1.089844 263.679688 " clip-rule="nonzero"/></clipPath><clipPath id="098366129f"><path d="M 103.710938 -27.226562 L 12.917969 268.917969 L -22.21875 258.144531 L 68.574219 -38 Z M 103.710938 -27.226562 " clip-rule="nonzero"/></clipPath><clipPath id="c36fa08b92"><rect x="0" width="93" y="0" height="267"/></clipPath></defs><g clip-path="url(#1e320bed09)"><g transform="matrix(1, 0, 0, 1, 35, 134)"><g clip-path="url(#2847d70f28)"><g clip-path="url(#68fb0a77e1)"><path fill="#004aad" d="M 0.476562 0.625 L 259.972656 0.625 L 259.972656 231.289062 L 0.476562 231.289062 Z M 0.476562 0.625 " fill-opacity="1" fill-rule="nonzero"/></g></g></g></g><g clip-path="url(#1fa5e66ed8)"><g transform="matrix(1, 0, 0, 1, 106, 9)"><g clip-path="url(#736a60b741)"><g clip-path="url(#857fd7221c)"><path fill="#ff2e2e" d="M 0.0625 0.710938 L 233.152344 0.710938 L 233.152344 208.621094 L 0.0625 208.621094 Z M 0.0625 0.710938 " fill-opacity="1" fill-rule="nonzero"/></g></g></g></g><g clip-path="url(#e1751305c9)"><g transform="matrix(1, 0, 0, 1, 165, 112)"><g clip-path="url(#1fe5f76774)"><g clip-path="url(#a1e83a58a5)"><path fill="#939598" d="M -123.300781 -0.222656 L 110.335938 -0.222656 L 110.335938 27.257812 L -123.300781 27.257812 Z M -123.300781 -0.222656 " fill-opacity="1" fill-rule="nonzero"/><path fill="#ffffff" d="M -123.300781 -0.222656 L 110.335938 -0.222656 L 110.335938 27.257812 L -123.300781 27.257812 Z M -123.300781 -0.222656 " fill-opacity="1" fill-rule="nonzero"/></g></g></g></g><g clip-path="url(#51d8b8a9c3)"><g transform="matrix(1, 0, 0, 1, 121, 252)"><g clip-path="url(#aab1515d8c)"><g clip-path="url(#5566686df9)"><path fill="#939598" d="M -123.542969 0.289062 L 110.09375 0.289062 L 110.09375 27.769531 L -123.542969 27.769531 Z M -123.542969 0.289062 " fill-opacity="1" fill-rule="nonzero"/><path fill="#ffffff" d="M -123.542969 0.289062 L 110.09375 0.289062 L 110.09375 27.769531 L -123.542969 27.769531 Z M -123.542969 0.289062 " fill-opacity="1" fill-rule="nonzero"/></g></g></g></g><g clip-path="url(#4aa2753a93)"><g transform="matrix(1, 0, 0, 1, 145, 182)"><g clip-path="url(#0244a304b1)"><g clip-path="url(#2a2673914b)"><path fill="#939598" d="M -123.984375 0.0351562 L 109.648438 0.0351562 L 109.648438 27.515625 L -123.984375 27.515625 Z M -123.984375 0.0351562 " fill-opacity="1" fill-rule="nonzero"/><path fill="#ffffff" d="M -123.984375 0.0351562 L 109.648438 0.0351562 L 109.648438 27.515625 L -123.984375 27.515625 Z M -123.984375 0.0351562 " fill-opacity="1" fill-rule="nonzero"/></g></g></g></g><g clip-path="url(#e5ff2133d8)"><g clip-path="url(#aa9c051f9b)"><g clip-path="url(#9c3a047e1a)"><g clip-path="url(#49577f223b)"><g transform="matrix(1, 0, 0, 1, 93, 58)"><g clip-path="url(#7b68b2c849)"><g clip-path="url(#23f365cfe2)"><g clip-path="url(#afd7299627)"><g clip-path="url(#fbe31b514f)"><g clip-path="url(#ef8271a896)"><g clip-path="url(#4adabf4a26)"><path fill="#939598" d="M 104.410156 -27.328125 L 13.765625 268.339844 L -21.011719 257.679688 L 69.632812 -37.992188 Z M 104.410156 -27.328125 " fill-opacity="1" fill-rule="nonzero"/><path fill="#ffffff" d="M 104.410156 -27.328125 L 13.765625 268.339844 L -21.011719 257.679688 L 69.632812 -37.992188 Z M 104.410156 -27.328125 " fill-opacity="1" fill-rule="nonzero"/></g></g></g></g></g></g></g></g></g></g></g><g clip-path="url(#2d9d9c517e)"><g clip-path="url(#5fa16530f7)"><g clip-path="url(#9954751834)"><g clip-path="url(#15f2d70618)"><g transform="matrix(1, 0, 0, 1, 201, 62)"><g clip-path="url(#c36fa08b92)"><g clip-path="url(#394f44cf47)"><g clip-path="url(#a8a29c3933)"><g clip-path="url(#41ae857798)"><g clip-path="url(#cfb546ad3e)"><g clip-path="url(#098366129f)"><path fill="#939598" d="M 103.652344 -27.039062 L 13.007812 268.632812 L -21.769531 257.96875 L 68.875 -37.703125 Z M 103.652344 -27.039062 " fill-opacity="1" fill-rule="nonzero"/><path fill="#ffffff" d="M 103.652344 -27.039062 L 13.007812 268.632812 L -21.769531 257.96875 L 68.875 -37.703125 Z M 103.652344 -27.039062 " fill-opacity="1" fill-rule="nonzero"/></g></g></g></g></g></g></g></g></g></g></g></svg>